<svg width="16" height="16" viewBox="0 0 16 16" fill="none" xmlns="http://www.w3.org/2000/svg">
<path fill-rule="evenodd" clip-rule="evenodd" d="M2.62478 2.63244L0.183832 3.0001L0 1.77963L3.66142 1.22813L4.21291 4.88955L2.99244 5.07338L2.62478 2.63244Z" fill="#707276"/>
<path fill-rule="evenodd" clip-rule="evenodd" d="M3.50024 1.53113C1.45478 2.96004 0.1168 5.33195 0.1168 8.01637C0.1168 12.3824 3.65618 15.9218 8.02223 15.9218C12.3883 15.9218 15.9277 12.3824 15.9277 8.01637C15.9277 3.66294 12.4087 0.131412 8.06009 0.111023L8.03504 1.11095C11.8429 1.11786 14.9277 4.20687 14.9277 8.01637C14.9277 11.8301 11.836 14.9218 8.02223 14.9218C4.20847 14.9218 1.1168 11.8301 1.1168 8.01637C1.1168 5.82668 2.13598 3.87504 3.72584 2.60992L3.50024 2.61573V1.99861V1.53113Z" fill="#707276"/>
<path fill-rule="evenodd" clip-rule="evenodd" d="M0.000391815 15.1222L15.0804 0.239809L15.9474 1.11828L0.867357 16.0007L0.000391815 15.1222Z" fill="#707276"/>
</svg>
