<svg width="20" height="20" viewBox="0 0 20 20" fill="none" xmlns="http://www.w3.org/2000/svg">
<path fill-rule="evenodd" clip-rule="evenodd" d="M10.6464 8.64645L13.2929 6.00001L10.6464 3.35356L11.3535 2.64645L14 5.2929L16.6464 2.64645L17.3535 3.35356L14.7071 6.00001L17.3535 8.64645L16.6464 9.35356L14 6.70711L11.3535 9.35356L10.6464 8.64645ZM2.91465 6H8C8 6.34071 8.0284 6.67479 8.08296 7H2.91465C2.70873 7.5826 2.15311 8 1.5 8C0.671573 8 0 7.32843 0 6.5C0 5.67157 0.671573 5 1.5 5C2.15311 5 2.70873 5.4174 2.91465 6ZM7.91465 10H9.52779C9.86799 10.3801 10.2559 10.7166 10.6822 11H7.91465C7.70873 11.5826 7.15311 12 6.5 12C5.84689 12 5.29127 11.5826 5.08535 11H0.5C0.223858 11 0 10.7761 0 10.5C0 10.2239 0.223858 10 0.5 10H5.08535C5.29127 9.4174 5.84689 9 6.5 9C7.15311 9 7.70873 9.4174 7.91465 10ZM2.91465 14C2.70873 13.4174 2.15311 13 1.5 13C0.671573 13 0 13.6716 0 14.5C0 15.3284 0.671573 16 1.5 16C2.15311 16 2.70873 15.5826 2.91465 15H14.5C14.7761 15 15 14.7761 15 14.5C15 14.2239 14.7761 14 14.5 14H2.91465Z" fill="currentColor"/>
</svg>
